<svg width="476" height="475" viewBox="0 0 476 475" fill="none" xmlns="http://www.w3.org/2000/svg">
<path d="M208.858 2.13456C183.549 6.43481 152.35 17.9425 130.934 30.8288C119.473 37.7214 112.533 43.1207 115.243 43.1275C115.845 43.129 121.423 40.585 127.907 37.291C142.23 30.2551 168.151 21.7435 186.23 18.4784C215.457 12.9842 256.851 19.4068 285.878 33.9235C330.395 56.1523 361.19 86.3214 379.613 125.638C387.102 141.906 386.488 146.418 378.696 131.052C370.156 114.029 363.102 104.381 348.381 89.75C327.953 69.3868 308.107 56.9995 281.777 48.0566C257.854 40.0225 250.779 38.8012 223.827 37.8312C183.023 36.3753 158.016 40.3754 122.746 53.8289C72.1009 73.2626 28.1604 121.601 9.64856 177.978C4.03383 195.267 1.43789 209.705 0.330901 230.917C-1.5594 264.315 4.54508 292.166 21.3248 326.513C30.4635 345.343 39.4621 359.96 40.9717 358.459C41.4245 358.009 39.0298 352.135 35.5833 345.356C13.5572 301.366 10.3641 253.361 26.4362 209.166C31.1362 196.388 47.1704 167.389 56.3863 155.225C69.0777 138.254 85.0827 120.991 94.889 113.643C105.148 105.995 136.359 89.8231 140.876 89.8344C142.382 89.8381 138.158 92.9873 131.673 97.0335C101.21 115.163 80.6775 136.327 61.0191 169.38C43.6293 198.526 37.2403 224.389 36.8325 267.119C36.6219 291.192 36.7691 292.547 41.9904 312.27C44.9742 323.412 49.6052 338.319 52.1474 345.397C70.0951 394.492 106.287 434.304 155.315 458.952C180.732 471.804 203.159 475.923 244.271 474.822C275.895 474.148 292.317 471.029 314.627 461.456C336.033 452.331 359.105 439.148 359.112 436.139C359.114 435.537 353.235 437.929 345.998 441.522C319.01 454.997 288.124 461.389 257.409 459.808C227.296 458.379 202.773 449.591 165.785 427.231C144.584 414.539 134.218 404.733 115.908 380.313C105.852 366.897 89.9626 337.968 92.673 337.975C93.5765 337.977 95.9776 341.294 97.9254 345.21C103.17 355.605 118.479 375.805 129.294 386.816C146.268 403.71 177.993 422.747 201.466 430.028C224.036 437.005 234.123 438.084 269.362 437.269C295.565 436.732 305.355 435.854 315.449 433.622C358.241 423.498 393.525 404.176 420.55 375.957C457.691 337.08 476.174 292.138 476.002 240.379C475.91 217.057 472.652 194.931 466.528 175.055C462.045 161.202 447.215 130.019 441.211 122.18C435.958 115.095 436.547 120.363 442.391 132.114C462.768 172.939 465.962 220.644 451.246 264.391C442.448 290.098 418.863 327.805 401.205 344.011C382.489 361.267 342.976 385.543 334.092 385.07C332.587 385.066 336.206 382.818 342.237 379.974C370.73 366.805 395.333 343.695 414.687 311.695C423.457 297.122 428.457 284.947 433.776 265.401C438.487 248.11 438.49 247.207 438.575 213.203C438.668 175.588 436.894 162.343 428.225 136.291C423.742 122.588 410.558 95.4722 402.458 83.1141C394.507 71.0574 376.333 52.3549 362.355 41.7878C347.926 30.9186 320.553 17.4592 297.683 9.87915C269.246 0.479631 235.372 -2.46361 208.858 2.13456ZM251.971 104.556C282.971 112.457 321.744 143.699 334.326 170.814C346.308 196.572 346.903 199.433 346.827 229.826C346.752 260.219 347.502 261.123 353.735 237.667C362.399 205.038 354.07 163.49 334.103 139.216C325.546 128.813 310.82 116.138 299.543 109.339C294.28 106.316 290.522 103.749 291.275 103.751C294.287 103.758 319.549 118.115 328.717 125.059C364.038 151.779 383.781 205.693 373.288 246.894C361.576 293.808 319.91 335.683 275.916 345.203C264.164 347.731 241.878 347.676 224.718 344.925C215.687 343.398 219.292 346.717 230.427 350.205C287.153 367.8 342.171 345.82 367.294 295.478C371.682 286.912 375.312 280.301 375.613 280.603C376.815 281.809 366.517 304.955 359.561 316.523C349.127 334.402 329.506 352.408 311.112 361.541C279.903 376.81 246.617 379.435 217.279 369.13C196.817 362.008 168.107 341.473 154.447 324.136C146.791 314.638 136.004 292.493 132.872 280.298C129.444 266.297 128.591 245.832 131.186 231.996C132.407 225.379 133.174 219.663 132.874 219.362C130.321 216.496 123.952 234.084 121.5 251.532C117.054 283.118 126.304 317.596 145.222 339.912C157.534 354.387 169.108 362.841 186.407 369.806C197.991 374.499 196.181 375.698 184.296 371.305C155.259 360.851 127.163 335.503 112.778 307.181C104.237 290.007 99.6422 260.655 102.254 239.748C104.251 224.105 111.678 204.714 121.049 190.594C124.98 184.435 135.551 172.123 144.307 163.418C158.346 149.611 162.118 146.611 174.631 140.624C182.471 136.732 193.324 132.395 198.748 131.055C210.501 128.075 237.306 127.841 250.551 130.582C256.42 131.951 259.732 132.109 260.789 131.059C261.846 130.008 258.236 128.194 249.811 125.314C238.977 121.826 234.01 121.062 215.038 120.412C194.56 119.76 191.849 120.054 179.191 123.633C154.327 130.643 136.681 141.883 122.482 159.602C114.929 168.912 103.736 189.046 103.725 193.409C103.723 194.162 102.967 195.364 102.062 195.963C99.8001 197.312 101.318 192.651 108.737 176.269C112.069 168.755 117.515 158.687 120.84 153.73C128.7 142.014 145.304 126.107 156.464 119.364C168.227 112.171 191.137 103.501 202.435 102.025C214.787 100.25 240.685 101.518 251.971 104.556Z" fill="#B00503"/>
</svg>
